<mxfile host="app.diagrams.net" modified="2021-11-06T05:16:46.574Z" agent="5.0 (Windows NT 10.0; Win64; x64) AppleWebKit/537.36 (KHTML, like Gecko) Chrome/95.0.4638.69 Safari/537.36" etag="YDJuHy6tyvcjfOZzc--m" version="15.6.8" type="github">
  <diagram id="OkPvy5nc4RwSI06xhwCN" name="Page-1">
    <mxGraphModel dx="782" dy="436" grid="1" gridSize="10" guides="1" tooltips="1" connect="1" arrows="1" fold="1" page="1" pageScale="1" pageWidth="850" pageHeight="1100" math="0" shadow="0">
      <root>
        <mxCell id="0" />
        <mxCell id="1" parent="0" />
        <mxCell id="gwY9xeqTMSN2PTn0ab9Y-1" value="&lt;font style=&quot;font-size: 20px&quot;&gt;&amp;lt;div style=&quot;background-color:red;&quot;&amp;gt;&amp;lt;/div&amp;gt;&lt;/font&gt;" style="rounded=0;whiteSpace=wrap;html=1;fillColor=#dae8fc;strokeColor=#6c8ebf;fontColor=default;" parent="1" vertex="1">
          <mxGeometry x="110" y="200" width="400" height="60" as="geometry" />
        </mxCell>
        <mxCell id="gwY9xeqTMSN2PTn0ab9Y-2" value="&lt;font style=&quot;font-size: 18px&quot;&gt;HTML&lt;/font&gt;" style="text;html=1;align=center;verticalAlign=middle;resizable=0;points=[];autosize=1;strokeColor=none;fillColor=none;fontColor=default;" parent="1" vertex="1">
          <mxGeometry x="50" y="220" width="60" height="20" as="geometry" />
        </mxCell>
        <mxCell id="gwY9xeqTMSN2PTn0ab9Y-7" value="&lt;font style=&quot;font-size: 20px&quot;&gt;&amp;lt;div style={{backgroundColor:&#39;red&#39;}}&amp;gt;&amp;lt;/div&amp;gt;&lt;/font&gt;" style="rounded=0;whiteSpace=wrap;html=1;fillColor=#dae8fc;strokeColor=#6c8ebf;fontColor=default;" parent="1" vertex="1">
          <mxGeometry x="110" y="320" width="400" height="60" as="geometry" />
        </mxCell>
        <mxCell id="gwY9xeqTMSN2PTn0ab9Y-8" value="&lt;span style=&quot;font-size: 18px&quot;&gt;&amp;nbsp; &amp;nbsp;JSX&lt;/span&gt;" style="text;html=1;align=center;verticalAlign=middle;resizable=0;points=[];autosize=1;strokeColor=none;fillColor=none;fontColor=default;" parent="1" vertex="1">
          <mxGeometry x="50" y="340" width="60" height="20" as="geometry" />
        </mxCell>
        <mxCell id="uOZGof7BWM2OaR9mL-pE-2" value="&lt;font style=&quot;font-size: 20px&quot;&gt;&amp;lt;CommentDetail&amp;nbsp; author =&amp;nbsp; &quot;aysun itai&quot; &amp;gt;&amp;lt;/div&amp;gt;&lt;/font&gt;" style="rounded=0;whiteSpace=wrap;html=1;fillColor=#dae8fc;strokeColor=#6c8ebf;fontColor=default;" vertex="1" parent="1">
          <mxGeometry x="110" y="460" width="460" height="60" as="geometry" />
        </mxCell>
        <mxCell id="uOZGof7BWM2OaR9mL-pE-3" value="" style="endArrow=classic;startArrow=classic;html=1;rounded=0;" edge="1" parent="1">
          <mxGeometry width="50" height="50" relative="1" as="geometry">
            <mxPoint x="290" y="530" as="sourcePoint" />
            <mxPoint x="360" y="530" as="targetPoint" />
          </mxGeometry>
        </mxCell>
        <mxCell id="uOZGof7BWM2OaR9mL-pE-5" value="" style="endArrow=classic;html=1;rounded=0;" edge="1" parent="1">
          <mxGeometry width="50" height="50" relative="1" as="geometry">
            <mxPoint x="320" y="530" as="sourcePoint" />
            <mxPoint x="320" y="560" as="targetPoint" />
          </mxGeometry>
        </mxCell>
        <mxCell id="uOZGof7BWM2OaR9mL-pE-6" value="name of the prop" style="text;html=1;strokeColor=none;fillColor=none;align=center;verticalAlign=middle;whiteSpace=wrap;rounded=0;" vertex="1" parent="1">
          <mxGeometry x="290" y="570" width="60" height="30" as="geometry" />
        </mxCell>
        <mxCell id="uOZGof7BWM2OaR9mL-pE-7" value="" style="endArrow=classic;startArrow=classic;html=1;rounded=0;" edge="1" parent="1">
          <mxGeometry width="50" height="50" relative="1" as="geometry">
            <mxPoint x="470" y="522" as="sourcePoint" />
            <mxPoint x="386" y="522" as="targetPoint" />
          </mxGeometry>
        </mxCell>
        <mxCell id="uOZGof7BWM2OaR9mL-pE-8" value="" style="endArrow=classic;html=1;rounded=0;" edge="1" parent="1">
          <mxGeometry width="50" height="50" relative="1" as="geometry">
            <mxPoint x="430" y="520" as="sourcePoint" />
            <mxPoint x="430" y="560" as="targetPoint" />
          </mxGeometry>
        </mxCell>
        <mxCell id="uOZGof7BWM2OaR9mL-pE-9" value="value of the prop" style="text;html=1;strokeColor=none;fillColor=none;align=center;verticalAlign=middle;whiteSpace=wrap;rounded=0;" vertex="1" parent="1">
          <mxGeometry x="400" y="560" width="60" height="30" as="geometry" />
        </mxCell>
      </root>
    </mxGraphModel>
  </diagram>
</mxfile>
